<?xml version="1.0" encoding="UTF-8" standalone="no"?>
<!-- Generator: Adobe Illustrator 17.1.0, SVG Export Plug-In . SVG Version: 6.00 Build 0)  -->
<!DOCTYPE svg  PUBLIC '-//W3C//DTD SVG 1.1//EN'  'http://www.w3.org/Graphics/SVG/1.1/DTD/svg11.dtd'>
<svg id="Ebene_1" xmlns="http://www.w3.org/2000/svg" xml:space="preserve" viewBox="0 0 435.9 153.1" version="1.1" y="0px" x="0px" xmlns:xlink="http://www.w3.org/1999/xlink" enable-background="new 0 0 435.9 153.1">
	<path d="m153.1 76.5c0 42.3-34.3 76.5-76.5 76.5-42.3 0.1-76.6-34.2-76.6-76.5 0-42.2 34.3-76.5 76.5-76.5 42.3 0 76.6 34.3 76.6 76.5" fill="#5d501c"/>
<path d="m77.6 69.5h-28.2v14.7h13v11.7c-3 1.6-8.1 3.6-15 3.6-13.6 0-22.4-9.8-22.4-23.3s8.7-23.2 22.3-23.2c8.1 0 13.3 2.3 17.5 6.8l11.2-12.2c-7.2-6.7-17.3-9.3-28.8-9.3-22.5 0-39 14.8-39 37.9s16.4 37.9 39 37.9c10.6 0 20.9-2 30.3-6.9v-37.7z" fill="#fff"/>
<polygon points="93.9 112.3 151 112.3 151 97.6 113.9 97.6 149.8 54.2 149.8 40.1 95.3 40.1 95.3 54.2 130.5 54.2 93.9 97.6" fill="#fff"/>
<polygon points="185.6 112.3 201.5 112.3 201.5 54.2 222.1 54.2 222.1 40.1 165 40.1 165 54.2 185.6 54.2" fill="#eab81b"/>
<polygon points="233.9 112.3 284.8 112.3 284.8 97.6 249.8 97.6 249.8 82.9 281.1 82.9 281.1 68.3 249.8 68.3 249.8 54.8 282.9 54.8 282.9 40.1 233.9 40.1" fill="#eab81b"/>
<polygon points="302.8 112.3 348.2 112.3 348.2 97.6 318.7 97.6 318.7 40.1 302.8 40.1" fill="#eab81b"/>
<polygon points="361.6 112.3 407 112.3 407 97.6 377.5 97.6 377.5 40.1 361.6 40.1" fill="#eab81b"/>
<rect y="40.1" x="420" height="72.2" width="15.9" fill="#eab81b"/>
</svg>
